<?xml version="1.0" encoding="utf-8"?>
<!-- Generator: Adobe Illustrator 24.1.1, SVG Export Plug-In . SVG Version: 6.00 Build 0)  -->
<svg version="1.1" id="Layer_1" xmlns="http://www.w3.org/2000/svg" xmlns:xlink="http://www.w3.org/1999/xlink" x="0px" y="0px"
	 viewBox="0 0 827.9 145.5" style="enable-background:new 0 0 827.9 145.5;" xml:space="preserve">
<style type="text/css">
	.st0{fill:#362E49;}
	.st1{font-family:'Ubuntu-Bold';}
	.st2{font-size:18px;}
</style>
<g>
	<rect x="12.6" y="12" class="st0" width="74" height="75.1"/>
	<path class="st0" d="M204.3,87.1h-66.9c-2,0-3.6-1.6-3.6-3.6V15.6c0-2,1.6-3.6,3.6-3.6h66.9c2,0,3.6,1.6,3.6,3.6v67.9
		C207.8,85.5,206.2,87.1,204.3,87.1z"/>
	<path class="st0" d="M319,87.1h-54.1c-5.5,0-10-4.5-10-10V22c0-5.5,4.5-10,10-10H319c5.5,0,10,4.5,10,10v55.1
		C329,82.6,324.5,87.1,319,87.1z"/>
	<path class="st0" d="M440.2,87.1H386c-5.5,0-10-4.5-10-10V12h74v65.1C450.1,82.6,445.7,87.1,440.2,87.1z"/>
	<path class="st0" d="M507.2,12h54.1c5.5,0,10,4.5,10,10v65.1h-74V22C497.2,16.5,501.7,12,507.2,12z"/>
	<ellipse class="st0" cx="776.6" cy="49.6" rx="37.3" ry="38"/>
	<path class="st0" d="M679.7,63.4h-48.5c-6.6,0-12-5.4-12-12v-3.6c0-6.6,5.4-12,12-12h48.5c6.6,0,12,5.4,12,12v3.6
		C691.7,58,686.3,63.4,679.7,63.4z"/>
</g>
<text transform="matrix(1 0 0 1 11.6172 129.6109)" class="st0 st1 st2">None</text>
<text transform="matrix(1 0 0 1 131.6172 129.6108)" class="st0 st1 st2">SM</text>
<text transform="matrix(1 0 0 1 253.1491 129.6107)" class="st0 st1 st2">MD</text>
<text transform="matrix(1 0 0 1 375.1917 129.6103)" class="st0 st1 st2">Bottom</text>
<text transform="matrix(1 0 0 1 496.7236 129.6106)" class="st0 st1 st2">Inside</text>
<text transform="matrix(1 0 0 1 618.2555 129.6108)" class="st0 st1 st2">Pill</text>
<text transform="matrix(1 0 0 1 738.2554 129.6108)" class="st0 st1 st2">Circular</text>
</svg>
