<?xml version="1.0" encoding="utf-8"?>
<!-- Generator: Adobe Illustrator 24.3.0, SVG Export Plug-In . SVG Version: 6.00 Build 0)  -->
<svg version="1.1" id="Layer_1" xmlns="http://www.w3.org/2000/svg" xmlns:xlink="http://www.w3.org/1999/xlink" x="0px" y="0px"
	 viewBox="0 0 739 145.5" style="enable-background:new 0 0 739 145.5;" xml:space="preserve">
<style type="text/css">
	.st0{fill:#362E49;}
	.st1{font-family:'Ubuntu-Bold';}
	.st2{font-size:18px;}
	.st3{fill:#848484;}
	.st4{font-family:'Ubuntu-Regular';}
	.st5{font-size:28px;}
	.st6{font-size:32px;}
	.st7{font-size:40px;}
	.st8{font-size:62px;}
	.st9{font-size:80px;}
	.st10{font-size:96px;}
</style>
<text transform="matrix(1 0 0 1 11.6172 129.6108)" class="st0 st1 st2">MD</text>
<text transform="matrix(1 0 0 1 131.6172 129.6108)" class="st0 st1 st2">Large</text>
<text transform="matrix(1 0 0 1 253.1491 129.6106)" class="st0 st1 st2">XL</text>
<text transform="matrix(1 0 0 1 375.1917 129.6104)" class="st0 st1 st2">XXL</text>
<text transform="matrix(1 0 0 1 496.7236 129.6106)" class="st0 st1 st2">Display</text>
<text transform="matrix(1 0 0 1 618.2555 129.6108)" class="st0 st1 st2">Giant</text>
<text transform="matrix(1 0 0 1 12.4701 87.2339)" class="st3 st4 st5">Aa</text>
<text transform="matrix(1 0 0 1 133.5078 87.1756)" class="st3 st4 st6">Aa</text>
<text transform="matrix(1 0 0 1 254.854 87.1164)" class="st3 st4 st7">Aa</text>
<text transform="matrix(1 0 0 1 375.8388 87.2496)" class="st3 st4 st8">Aa</text>
<text transform="matrix(1 0 0 1 497.0321 87.1954)" class="st3 st4 st9">Aa</text>
<text transform="matrix(1 0 0 1 619.2469 87.1412)" class="st3 st4 st10">Aa</text>
</svg>
