<svg width="181" height="180" viewBox="0 0 181 180" fill="none" xmlns="http://www.w3.org/2000/svg">
<g clip-path="url(#clip0)">
<path d="M90.6202 180.239C140.668 180.239 181.24 139.891 181.24 90.1195C181.24 40.3479 140.668 0 90.6202 0C40.572 0 0 40.3479 0 90.1195C0 139.891 40.572 180.239 90.6202 180.239Z" fill="#170085"/>
<path d="M60.5737 60V41.5936C60.5737 35.1394 65.8619 29.8805 72.3519 29.8805H108.648C115.138 29.8805 120.426 35.1394 120.426 41.5936V105.896" stroke="white" stroke-width="2" stroke-miterlimit="10"/>
<path d="M120.426 119.522V138.406C120.426 144.861 115.138 150.12 108.648 150.12H72.3519C65.8619 150.12 60.5737 144.861 60.5737 138.406V81.2749" stroke="white" stroke-width="2" stroke-miterlimit="10"/>
<path d="M61.0544 44.4622H120.186" stroke="white" stroke-width="2" stroke-miterlimit="10" stroke-linecap="round" stroke-linejoin="round"/>
<path d="M61.0544 134.343H120.186" stroke="white" stroke-width="2" stroke-miterlimit="10" stroke-linecap="round" stroke-linejoin="round"/>
<path d="M86.7742 141.992H94.2258" stroke="white" stroke-width="2" stroke-miterlimit="10" stroke-linecap="round" stroke-linejoin="round"/>
<path d="M82.6879 37.2908H98.3121" stroke="white" stroke-width="2" stroke-miterlimit="10" stroke-linecap="round" stroke-linejoin="round"/>
<path d="M110.09 60H30.2868V81.753H110.09V60Z" stroke="#ED3558" stroke-width="2" stroke-miterlimit="10" stroke-linecap="round" stroke-linejoin="round"/>
<path d="M110.09 93.9442H30.2868" stroke="#ED3558" stroke-width="2" stroke-miterlimit="10" stroke-linecap="round" stroke-linejoin="round"/>
<path d="M49.5166 106.614H30.2868" stroke="#ED3558" stroke-width="2" stroke-miterlimit="10" stroke-linecap="round" stroke-linejoin="round"/>
<path d="M49.5166 119.283H30.2868" stroke="#ED3558" stroke-width="2" stroke-miterlimit="10" stroke-linecap="round" stroke-linejoin="round"/>
<path d="M150.954 106.135H91.3413V119.283H150.954V106.135Z" stroke="#ED3558" stroke-width="2" stroke-miterlimit="10" stroke-linecap="round" stroke-linejoin="round"/>
<path d="M70.3778 119.323H80.7137V106.176H70.3778V119.323Z" stroke="#ED3558" stroke-width="2" stroke-miterlimit="10" stroke-linecap="round" stroke-linejoin="round"/>
</g>
<defs>
<clipPath id="clip0">
<rect width="181" height="180" fill="white"/>
</clipPath>
</defs>
</svg>
